{
	"asset":{
		"generator":"Khronos glTF Blender I/O v3.6.27",
		"version":"2.0"
	},
	"scene":0,
	"scenes":[
		{
			"name":"Scene",
			"nodes":[
				0
			]
		}
	],
	"nodes":[
		{
			"mesh":0,
			"name":"Pinzelborste.001",
			"translation":[
				1.0371345281600952,
				1.33395254611969,
				-3.6517367362976074
			]
		}
	],
	"materials":[
		{
			"doubleSided":true,
			"name":"Grey",
			"pbrMetallicRoughness":{
				"baseColorFactor":[
					0.023707397282123566,
					0.023707397282123566,
					0.0482742004096508,
					1
				],
				"metallicFactor":0,
				"roughnessFactor":0.9696487188339233
			}
		},
		{
			"doubleSided":true,
			"name":"orangeDunkel",
			"pbrMetallicRoughness":{
				"baseColorFactor":[
					0.7346576452255249,
					0.37816208600997925,
					0.1395803689956665,
					1
				],
				"metallicFactor":0
			}
		},
		{
			"doubleSided":true,
			"name":"orangeHell",
			"pbrMetallicRoughness":{
				"baseColorFactor":[
					0.7346576452255249,
					0.37816208600997925,
					0.1395803689956665,
					1
				],
				"metallicFactor":0
			}
		},
		{
			"doubleSided":true,
			"name":"Blau",
			"pbrMetallicRoughness":{
				"baseColorFactor":[
					0.07227185368537903,
					0.21223075687885284,
					0.3277781009674072,
					1
				],
				"metallicFactor":0,
				"roughnessFactor":0.9950000047683716
			}
		},
		{
			"doubleSided":true,
			"name":"creme",
			"pbrMetallicRoughness":{
				"baseColorFactor":[
					0.9386857151985168,
					0.8962693810462952,
					0.8227857351303101,
					1
				],
				"metallicFactor":0,
				"roughnessFactor":0.9950000047683716
			}
		}
	],
	"meshes":[
		{
			"name":"Cylinder.021",
			"primitives":[
				{
					"attributes":{
						"POSITION":0,
						"NORMAL":1,
						"TEXCOORD_0":2
					},
					"indices":3,
					"material":0
				},
				{
					"attributes":{
						"POSITION":4,
						"NORMAL":5,
						"TEXCOORD_0":6
					},
					"indices":7,
					"material":1
				},
				{
					"attributes":{
						"POSITION":8,
						"NORMAL":9,
						"TEXCOORD_0":10
					},
					"indices":11,
					"material":2
				},
				{
					"attributes":{
						"POSITION":12,
						"NORMAL":13,
						"TEXCOORD_0":14
					},
					"indices":15,
					"material":3
				},
				{
					"attributes":{
						"POSITION":16,
						"NORMAL":17,
						"TEXCOORD_0":18
					},
					"indices":19,
					"material":4
				}
			]
		}
	],
	"accessors":[
		{
			"bufferView":0,
			"componentType":5126,
			"count":309,
			"max":[
				0.02346649393439293,
				0.05721082538366318,
				-0.08420252054929733
			],
			"min":[
				0.0011630471562966704,
				0.013705557212233543,
				-0.18254005908966064
			],
			"type":"VEC3"
		},
		{
			"bufferView":1,
			"componentType":5126,
			"count":309,
			"type":"VEC3"
		},
		{
			"bufferView":2,
			"componentType":5126,
			"count":309,
			"type":"VEC2"
		},
		{
			"bufferView":3,
			"componentType":5123,
			"count":1686,
			"type":"SCALAR"
		},
		{
			"bufferView":4,
			"componentType":5126,
			"count":63,
			"max":[
				0.010026677511632442,
				0.07064085453748703,
				-0.053644806146621704
			],
			"min":[
				0.0012892851373180747,
				0.01700056530535221,
				-0.10960739850997925
			],
			"type":"VEC3"
		},
		{
			"bufferView":5,
			"componentType":5126,
			"count":63,
			"type":"VEC3"
		},
		{
			"bufferView":6,
			"componentType":5126,
			"count":63,
			"type":"VEC2"
		},
		{
			"bufferView":7,
			"componentType":5123,
			"count":198,
			"type":"SCALAR"
		},
		{
			"bufferView":8,
			"componentType":5126,
			"count":50,
			"max":[
				0.0037158129271119833,
				0.07214164733886719,
				-0.02154015377163887
			],
			"min":[
				0.0012892846716567874,
				0.0014197956770658493,
				-0.10706910490989685
			],
			"type":"VEC3"
		},
		{
			"bufferView":9,
			"componentType":5126,
			"count":50,
			"type":"VEC3"
		},
		{
			"bufferView":10,
			"componentType":5126,
			"count":50,
			"type":"VEC2"
		},
		{
			"bufferView":11,
			"componentType":5123,
			"count":192,
			"type":"SCALAR"
		},
		{
			"bufferView":12,
			"componentType":5126,
			"count":77,
			"max":[
				0.0037158129271119833,
				0.05473489314317703,
				0.11457747966051102
			],
			"min":[
				-0.024569205939769745,
				-0.07064102590084076,
				-0.045278988778591156
			],
			"type":"VEC3"
		},
		{
			"bufferView":13,
			"componentType":5126,
			"count":77,
			"type":"VEC3"
		},
		{
			"bufferView":14,
			"componentType":5126,
			"count":77,
			"type":"VEC2"
		},
		{
			"bufferView":15,
			"componentType":5123,
			"count":228,
			"type":"SCALAR"
		},
		{
			"bufferView":16,
			"componentType":5126,
			"count":330,
			"max":[
				0.0014688392402604222,
				0.08089298754930496,
				0.12191764265298843
			],
			"min":[
				-0.027937330305576324,
				-0.07711449265480042,
				-0.1412586271762848
			],
			"type":"VEC3"
		},
		{
			"bufferView":17,
			"componentType":5126,
			"count":330,
			"type":"VEC3"
		},
		{
			"bufferView":18,
			"componentType":5126,
			"count":330,
			"type":"VEC2"
		},
		{
			"bufferView":19,
			"componentType":5123,
			"count":1704,
			"type":"SCALAR"
		}
	],
	"bufferViews":[
		{
			"buffer":0,
			"byteLength":3708,
			"byteOffset":0,
			"target":34962
		},
		{
			"buffer":0,
			"byteLength":3708,
			"byteOffset":3708,
			"target":34962
		},
		{
			"buffer":0,
			"byteLength":2472,
			"byteOffset":7416,
			"target":34962
		},
		{
			"buffer":0,
			"byteLength":3372,
			"byteOffset":9888,
			"target":34963
		},
		{
			"buffer":0,
			"byteLength":756,
			"byteOffset":13260,
			"target":34962
		},
		{
			"buffer":0,
			"byteLength":756,
			"byteOffset":14016,
			"target":34962
		},
		{
			"buffer":0,
			"byteLength":504,
			"byteOffset":14772,
			"target":34962
		},
		{
			"buffer":0,
			"byteLength":396,
			"byteOffset":15276,
			"target":34963
		},
		{
			"buffer":0,
			"byteLength":600,
			"byteOffset":15672,
			"target":34962
		},
		{
			"buffer":0,
			"byteLength":600,
			"byteOffset":16272,
			"target":34962
		},
		{
			"buffer":0,
			"byteLength":400,
			"byteOffset":16872,
			"target":34962
		},
		{
			"buffer":0,
			"byteLength":384,
			"byteOffset":17272,
			"target":34963
		},
		{
			"buffer":0,
			"byteLength":924,
			"byteOffset":17656,
			"target":34962
		},
		{
			"buffer":0,
			"byteLength":924,
			"byteOffset":18580,
			"target":34962
		},
		{
			"buffer":0,
			"byteLength":616,
			"byteOffset":19504,
			"target":34962
		},
		{
			"buffer":0,
			"byteLength":456,
			"byteOffset":20120,
			"target":34963
		},
		{
			"buffer":0,
			"byteLength":3960,
			"byteOffset":20576,
			"target":34962
		},
		{
			"buffer":0,
			"byteLength":3960,
			"byteOffset":24536,
			"target":34962
		},
		{
			"buffer":0,
			"byteLength":2640,
			"byteOffset":28496,
			"target":34962
		},
		{
			"buffer":0,
			"byteLength":3408,
			"byteOffset":31136,
			"target":34963
		}
	],
	"buffers":[
		{
			"byteLength":34544,
			"uri":"data:application/octet-stream;base64,"
		}
	]
}
