{
	"asset":{
		"generator":"Khronos glTF Blender I/O v3.6.27",
		"version":"2.0"
	},
	"scene":0,
	"scenes":[
		{
			"name":"Scene",
			"nodes":[
				0
			]
		}
	],
	"nodes":[
		{
			"mesh":0,
			"name":"Plane.007",
			"rotation":[
				0,
				0,
				-0.7071068286895752,
				0.7071068286895752
			],
			"translation":[
				1.1184148788452148,
				1.3176461458206177,
				-3.447094678878784
			]
		}
	],
	"materials":[
		{
			"doubleSided":true,
			"name":"creme",
			"pbrMetallicRoughness":{
				"baseColorFactor":[
					0.7493648529052734,
					0.7156952619552612,
					0.7630926966667175,
					1
				],
				"metallicFactor":0,
				"roughnessFactor":0.9950000047683716
			}
		},
		{
			"doubleSided":true,
			"name":"Blau",
			"pbrMetallicRoughness":{
				"baseColorFactor":[
					0.07227185368537903,
					0.21223075687885284,
					0.3277781009674072,
					1
				],
				"metallicFactor":0,
				"roughnessFactor":0.9950000047683716
			}
		}
	],
	"meshes":[
		{
			"name":"Plane.044",
			"primitives":[
				{
					"attributes":{
						"POSITION":0,
						"NORMAL":1,
						"TEXCOORD_0":2
					},
					"indices":3,
					"material":0
				},
				{
					"attributes":{
						"POSITION":4,
						"NORMAL":5,
						"TEXCOORD_0":6
					},
					"indices":7,
					"material":1
				}
			]
		}
	],
	"accessors":[
		{
			"bufferView":0,
			"componentType":5126,
			"count":48,
			"max":[
				0.020835017785429955,
				0.0014732503332197666,
				0.03279735520482063
			],
			"min":[
				-0.044919662177562714,
				-0.001399239175952971,
				-0.037767112255096436
			],
			"type":"VEC3"
		},
		{
			"bufferView":1,
			"componentType":5126,
			"count":48,
			"type":"VEC3"
		},
		{
			"bufferView":2,
			"componentType":5126,
			"count":48,
			"type":"VEC2"
		},
		{
			"bufferView":3,
			"componentType":5123,
			"count":264,
			"type":"SCALAR"
		},
		{
			"bufferView":4,
			"componentType":5126,
			"count":84,
			"max":[
				0.04233721271157265,
				0.009617181494832039,
				0.038583606481552124
			],
			"min":[
				-0.02968832291662693,
				-0.009197508916258812,
				-0.04355320334434509
			],
			"type":"VEC3"
		},
		{
			"bufferView":5,
			"componentType":5126,
			"count":84,
			"type":"VEC3"
		},
		{
			"bufferView":6,
			"componentType":5126,
			"count":84,
			"type":"VEC2"
		},
		{
			"bufferView":7,
			"componentType":5123,
			"count":468,
			"type":"SCALAR"
		}
	],
	"bufferViews":[
		{
			"buffer":0,
			"byteLength":576,
			"byteOffset":0,
			"target":34962
		},
		{
			"buffer":0,
			"byteLength":576,
			"byteOffset":576,
			"target":34962
		},
		{
			"buffer":0,
			"byteLength":384,
			"byteOffset":1152,
			"target":34962
		},
		{
			"buffer":0,
			"byteLength":528,
			"byteOffset":1536,
			"target":34963
		},
		{
			"buffer":0,
			"byteLength":1008,
			"byteOffset":2064,
			"target":34962
		},
		{
			"buffer":0,
			"byteLength":1008,
			"byteOffset":3072,
			"target":34962
		},
		{
			"buffer":0,
			"byteLength":672,
			"byteOffset":4080,
			"target":34962
		},
		{
			"buffer":0,
			"byteLength":936,
			"byteOffset":4752,
			"target":34963
		}
	],
	"buffers":[
		{
			"byteLength":5688,
			"uri":"data:application/octet-stream;base64,"
		}
	]
}
