{
	"asset":{
		"generator":"Khronos glTF Blender I/O v3.6.27",
		"version":"2.0"
	},
	"scene":0,
	"scenes":[
		{
			"name":"Scene",
			"nodes":[
				0
			]
		}
	],
	"nodes":[
		{
			"mesh":0,
			"name":"Schlossring",
			"translation":[
				1.0031664371490479,
				1.3474020957946777,
				-4.843085765838623
			]
		}
	],
	"materials":[
		{
			"doubleSided":true,
			"name":"creme",
			"pbrMetallicRoughness":{
				"baseColorFactor":[
					0.7529416084289551,
					0.715692937374115,
					0.7605245113372803,
					1
				],
				"metallicFactor":0,
				"roughnessFactor":0.9950000047683716
			}
		},
		{
			"doubleSided":true,
			"name":"Material_267",
			"pbrMetallicRoughness":{
				"baseColorFactor":[
					0.08865558356046677,
					0.08865558356046677,
					0.10461648553609848,
					1
				],
				"metallicFactor":0,
				"roughnessFactor":0.9056426882743835
			}
		},
		{
			"doubleSided":true,
			"name":"Material_268",
			"pbrMetallicRoughness":{
				"baseColorFactor":[
					0.08865558356046677,
					0.08865558356046677,
					0.10461648553609848,
					1
				],
				"metallicFactor":0,
				"roughnessFactor":0.9056426882743835
			}
		},
		{
			"doubleSided":true,
			"name":"orangeHell",
			"pbrMetallicRoughness":{
				"baseColorFactor":[
					0.7346576452255249,
					0.37816208600997925,
					0.1395803689956665,
					1
				],
				"metallicFactor":0
			}
		},
		{
			"doubleSided":true,
			"name":"Blau",
			"pbrMetallicRoughness":{
				"baseColorFactor":[
					0.07227185368537903,
					0.21223075687885284,
					0.3277781009674072,
					1
				],
				"metallicFactor":0,
				"roughnessFactor":0.9950000047683716
			}
		}
	],
	"meshes":[
		{
			"name":"Cylinder.001",
			"primitives":[
				{
					"attributes":{
						"POSITION":0,
						"NORMAL":1,
						"TEXCOORD_0":2,
						"TEXCOORD_1":3
					},
					"indices":4,
					"material":0
				},
				{
					"attributes":{
						"POSITION":5,
						"NORMAL":6,
						"TEXCOORD_0":7,
						"TEXCOORD_1":8
					},
					"indices":9,
					"material":1
				},
				{
					"attributes":{
						"POSITION":10,
						"NORMAL":11,
						"TEXCOORD_0":12,
						"TEXCOORD_1":13
					},
					"indices":9,
					"material":2
				},
				{
					"attributes":{
						"POSITION":14,
						"NORMAL":15,
						"TEXCOORD_0":16,
						"TEXCOORD_1":17
					},
					"indices":18,
					"material":3
				},
				{
					"attributes":{
						"POSITION":19,
						"NORMAL":20,
						"TEXCOORD_0":21,
						"TEXCOORD_1":22
					},
					"indices":23,
					"material":4
				}
			]
		}
	],
	"accessors":[
		{
			"bufferView":0,
			"componentType":5126,
			"count":711,
			"max":[
				0.010158881545066833,
				0.08860886096954346,
				0.05002236366271973
			],
			"min":[
				0.0005154227837920189,
				-0.051327213644981384,
				-0.11000734567642212
			],
			"type":"VEC3"
		},
		{
			"bufferView":1,
			"componentType":5126,
			"count":711,
			"type":"VEC3"
		},
		{
			"bufferView":2,
			"componentType":5126,
			"count":711,
			"type":"VEC2"
		},
		{
			"bufferView":3,
			"componentType":5126,
			"count":711,
			"type":"VEC2"
		},
		{
			"bufferView":4,
			"componentType":5123,
			"count":3858,
			"type":"SCALAR"
		},
		{
			"bufferView":5,
			"componentType":5126,
			"count":384,
			"max":[
				-0.005349988583475351,
				0.062453173100948334,
				0.12611041963100433
			],
			"min":[
				-0.008787277154624462,
				0.039828233420848846,
				0.10221095383167267
			],
			"type":"VEC3"
		},
		{
			"bufferView":6,
			"componentType":5126,
			"count":384,
			"type":"VEC3"
		},
		{
			"bufferView":7,
			"componentType":5126,
			"count":384,
			"type":"VEC2"
		},
		{
			"bufferView":8,
			"componentType":5126,
			"count":384,
			"type":"VEC2"
		},
		{
			"bufferView":9,
			"componentType":5123,
			"count":576,
			"type":"SCALAR"
		},
		{
			"bufferView":10,
			"componentType":5126,
			"count":384,
			"max":[
				-0.003381506772711873,
				0.08876852691173553,
				0.11088234186172485
			],
			"min":[
				-0.008787243627011776,
				0.05318686366081238,
				0.07329624891281128
			],
			"type":"VEC3"
		},
		{
			"bufferView":11,
			"componentType":5126,
			"count":384,
			"type":"VEC3"
		},
		{
			"bufferView":12,
			"componentType":5126,
			"count":384,
			"type":"VEC2"
		},
		{
			"bufferView":13,
			"componentType":5126,
			"count":384,
			"type":"VEC2"
		},
		{
			"bufferView":14,
			"componentType":5126,
			"count":68,
			"max":[
				0.011199668049812317,
				0.056123629212379456,
				0.0042678192257881165
			],
			"min":[
				0.007745429873466492,
				-0.0037488602101802826,
				-0.05606992915272713
			],
			"type":"VEC3"
		},
		{
			"bufferView":15,
			"componentType":5126,
			"count":68,
			"type":"VEC3"
		},
		{
			"bufferView":16,
			"componentType":5126,
			"count":68,
			"type":"VEC2"
		},
		{
			"bufferView":17,
			"componentType":5126,
			"count":68,
			"type":"VEC2"
		},
		{
			"bufferView":18,
			"componentType":5123,
			"count":318,
			"type":"SCALAR"
		},
		{
			"bufferView":19,
			"componentType":5126,
			"count":385,
			"max":[
				0.018681295216083527,
				0.06843502819538116,
				0.05473131313920021
			],
			"min":[
				-0.0047227488830685616,
				-0.05382534861564636,
				-0.1152837872505188
			],
			"type":"VEC3"
		},
		{
			"bufferView":20,
			"componentType":5126,
			"count":385,
			"type":"VEC3"
		},
		{
			"bufferView":21,
			"componentType":5126,
			"count":385,
			"type":"VEC2"
		},
		{
			"bufferView":22,
			"componentType":5126,
			"count":385,
			"type":"VEC2"
		},
		{
			"bufferView":23,
			"componentType":5123,
			"count":1650,
			"type":"SCALAR"
		}
	],
	"bufferViews":[
		{
			"buffer":0,
			"byteLength":8532,
			"byteOffset":0,
			"target":34962
		},
		{
			"buffer":0,
			"byteLength":8532,
			"byteOffset":8532,
			"target":34962
		},
		{
			"buffer":0,
			"byteLength":5688,
			"byteOffset":17064,
			"target":34962
		},
		{
			"buffer":0,
			"byteLength":5688,
			"byteOffset":22752,
			"target":34962
		},
		{
			"buffer":0,
			"byteLength":7716,
			"byteOffset":28440,
			"target":34963
		},
		{
			"buffer":0,
			"byteLength":4608,
			"byteOffset":36156,
			"target":34962
		},
		{
			"buffer":0,
			"byteLength":4608,
			"byteOffset":40764,
			"target":34962
		},
		{
			"buffer":0,
			"byteLength":3072,
			"byteOffset":45372,
			"target":34962
		},
		{
			"buffer":0,
			"byteLength":3072,
			"byteOffset":48444,
			"target":34962
		},
		{
			"buffer":0,
			"byteLength":1152,
			"byteOffset":51516,
			"target":34963
		},
		{
			"buffer":0,
			"byteLength":4608,
			"byteOffset":52668,
			"target":34962
		},
		{
			"buffer":0,
			"byteLength":4608,
			"byteOffset":57276,
			"target":34962
		},
		{
			"buffer":0,
			"byteLength":3072,
			"byteOffset":61884,
			"target":34962
		},
		{
			"buffer":0,
			"byteLength":3072,
			"byteOffset":64956,
			"target":34962
		},
		{
			"buffer":0,
			"byteLength":816,
			"byteOffset":68028,
			"target":34962
		},
		{
			"buffer":0,
			"byteLength":816,
			"byteOffset":68844,
			"target":34962
		},
		{
			"buffer":0,
			"byteLength":544,
			"byteOffset":69660,
			"target":34962
		},
		{
			"buffer":0,
			"byteLength":544,
			"byteOffset":70204,
			"target":34962
		},
		{
			"buffer":0,
			"byteLength":636,
			"byteOffset":70748,
			"target":34963
		},
		{
			"buffer":0,
			"byteLength":4620,
			"byteOffset":71384,
			"target":34962
		},
		{
			"buffer":0,
			"byteLength":4620,
			"byteOffset":76004,
			"target":34962
		},
		{
			"buffer":0,
			"byteLength":3080,
			"byteOffset":80624,
			"target":34962
		},
		{
			"buffer":0,
			"byteLength":3080,
			"byteOffset":83704,
			"target":34962
		},
		{
			"buffer":0,
			"byteLength":3300,
			"byteOffset":86784,
			"target":34963
		}
	],
	"buffers":[
		{
			"byteLength":90084,
			"uri":"data:application/octet-stream;base64,"
		}
	]
}
