{
	"asset":{
		"generator":"Khronos glTF Blender I/O v3.6.27",
		"version":"2.0"
	},
	"scene":0,
	"scenes":[
		{
			"name":"Scene",
			"nodes":[
				0
			]
		}
	],
	"nodes":[
		{
			"mesh":0,
			"name":"Kontaktbuch.001",
			"translation":[
				1.231340765953064,
				1.266595482826233,
				-4.556741714477539
			]
		}
	],
	"materials":[
		{
			"doubleSided":true,
			"name":"creme",
			"pbrMetallicRoughness":{
				"baseColorFactor":[
					0.7529416084289551,
					0.715692937374115,
					0.7605245113372803,
					1
				],
				"metallicFactor":0,
				"roughnessFactor":0.9950000047683716
			}
		},
		{
			"doubleSided":true,
			"name":"Blau",
			"pbrMetallicRoughness":{
				"baseColorFactor":[
					0.07227185368537903,
					0.21223075687885284,
					0.3277781009674072,
					1
				],
				"metallicFactor":0,
				"roughnessFactor":0.9950000047683716
			}
		}
	],
	"meshes":[
		{
			"name":"Kontaktbuch.001",
			"primitives":[
				{
					"attributes":{
						"POSITION":0,
						"NORMAL":1,
						"TEXCOORD_0":2
					},
					"indices":3,
					"material":0
				},
				{
					"attributes":{
						"POSITION":4,
						"NORMAL":5,
						"TEXCOORD_0":6
					},
					"indices":7,
					"material":1
				}
			]
		}
	],
	"accessors":[
		{
			"bufferView":0,
			"componentType":5126,
			"count":385,
			"max":[
				0.028114978224039078,
				0.04660037159919739,
				0.030600618571043015
			],
			"min":[
				-0.013182900846004486,
				-0.04609917476773262,
				-0.03392403572797775
			],
			"type":"VEC3"
		},
		{
			"bufferView":1,
			"componentType":5126,
			"count":385,
			"type":"VEC3"
		},
		{
			"bufferView":2,
			"componentType":5126,
			"count":385,
			"type":"VEC2"
		},
		{
			"bufferView":3,
			"componentType":5123,
			"count":1464,
			"type":"SCALAR"
		},
		{
			"bufferView":4,
			"componentType":5126,
			"count":1085,
			"max":[
				0.022571183741092682,
				0.050819020718336105,
				0.04192012920975685
			],
			"min":[
				-0.028114978224039078,
				-0.05081905052065849,
				-0.04192013666033745
			],
			"type":"VEC3"
		},
		{
			"bufferView":5,
			"componentType":5126,
			"count":1085,
			"type":"VEC3"
		},
		{
			"bufferView":6,
			"componentType":5126,
			"count":1085,
			"type":"VEC2"
		},
		{
			"bufferView":7,
			"componentType":5123,
			"count":6480,
			"type":"SCALAR"
		}
	],
	"bufferViews":[
		{
			"buffer":0,
			"byteLength":4620,
			"byteOffset":0,
			"target":34962
		},
		{
			"buffer":0,
			"byteLength":4620,
			"byteOffset":4620,
			"target":34962
		},
		{
			"buffer":0,
			"byteLength":3080,
			"byteOffset":9240,
			"target":34962
		},
		{
			"buffer":0,
			"byteLength":2928,
			"byteOffset":12320,
			"target":34963
		},
		{
			"buffer":0,
			"byteLength":13020,
			"byteOffset":15248,
			"target":34962
		},
		{
			"buffer":0,
			"byteLength":13020,
			"byteOffset":28268,
			"target":34962
		},
		{
			"buffer":0,
			"byteLength":8680,
			"byteOffset":41288,
			"target":34962
		},
		{
			"buffer":0,
			"byteLength":12960,
			"byteOffset":49968,
			"target":34963
		}
	],
	"buffers":[
		{
			"byteLength":62928,
			"uri":"data:application/octet-stream;base64,"
		}
	]
}
