{
	"asset":{
		"generator":"Khronos glTF Blender I/O v3.6.27",
		"version":"2.0"
	},
	"scene":0,
	"scenes":[
		{
			"name":"Scene",
			"nodes":[
				0
			]
		}
	],
	"nodes":[
		{
			"mesh":0,
			"name":"Mail",
			"translation":[
				1.231340765953064,
				1.266595482826233,
				-4.471240520477295
			]
		}
	],
	"materials":[
		{
			"doubleSided":true,
			"name":"Blau",
			"pbrMetallicRoughness":{
				"baseColorFactor":[
					0.07227185368537903,
					0.21223075687885284,
					0.3277781009674072,
					1
				],
				"metallicFactor":0,
				"roughnessFactor":0.9950000047683716
			}
		},
		{
			"doubleSided":true,
			"name":"creme",
			"pbrMetallicRoughness":{
				"baseColorFactor":[
					0.9386847615242004,
					0.8962686061859131,
					0.9559733867645264,
					1
				],
				"metallicFactor":0,
				"roughnessFactor":0.9950000047683716
			}
		}
	],
	"meshes":[
		{
			"name":"Cube.010",
			"primitives":[
				{
					"attributes":{
						"POSITION":0,
						"NORMAL":1,
						"TEXCOORD_0":2
					},
					"indices":3,
					"material":0
				},
				{
					"attributes":{
						"POSITION":4,
						"NORMAL":5,
						"TEXCOORD_0":6
					},
					"indices":7,
					"material":1
				}
			]
		}
	],
	"accessors":[
		{
			"bufferView":0,
			"componentType":5126,
			"count":317,
			"max":[
				0.00546624232083559,
				0.058898501098155975,
				0.03726327791810036
			],
			"min":[
				-0.0009445323958061635,
				-0.023487471044063568,
				-0.03726327791810036
			],
			"type":"VEC3"
		},
		{
			"bufferView":1,
			"componentType":5126,
			"count":317,
			"type":"VEC3"
		},
		{
			"bufferView":2,
			"componentType":5126,
			"count":317,
			"type":"VEC2"
		},
		{
			"bufferView":3,
			"componentType":5123,
			"count":612,
			"type":"SCALAR"
		},
		{
			"bufferView":4,
			"componentType":5126,
			"count":4,
			"max":[
				0.003169658361002803,
				0.05631493404507637,
				0.029833229258656502
			],
			"min":[
				0.0031696532387286425,
				-0.014516819268465042,
				-0.029833229258656502
			],
			"type":"VEC3"
		},
		{
			"bufferView":5,
			"componentType":5126,
			"count":4,
			"type":"VEC3"
		},
		{
			"bufferView":6,
			"componentType":5126,
			"count":4,
			"type":"VEC2"
		},
		{
			"bufferView":7,
			"componentType":5123,
			"count":6,
			"type":"SCALAR"
		}
	],
	"bufferViews":[
		{
			"buffer":0,
			"byteLength":3804,
			"byteOffset":0,
			"target":34962
		},
		{
			"buffer":0,
			"byteLength":3804,
			"byteOffset":3804,
			"target":34962
		},
		{
			"buffer":0,
			"byteLength":2536,
			"byteOffset":7608,
			"target":34962
		},
		{
			"buffer":0,
			"byteLength":1224,
			"byteOffset":10144,
			"target":34963
		},
		{
			"buffer":0,
			"byteLength":48,
			"byteOffset":11368,
			"target":34962
		},
		{
			"buffer":0,
			"byteLength":48,
			"byteOffset":11416,
			"target":34962
		},
		{
			"buffer":0,
			"byteLength":32,
			"byteOffset":11464,
			"target":34962
		},
		{
			"buffer":0,
			"byteLength":12,
			"byteOffset":11496,
			"target":34963
		}
	],
	"buffers":[
		{
			"byteLength":11508,
			"uri":"data:application/octet-stream;base64,"
		}
	]
}
