{
	"asset":{
		"generator":"Khronos glTF Blender I/O v3.6.27",
		"version":"2.0"
	},
	"scene":0,
	"scenes":[
		{
			"name":"Scene",
			"nodes":[
				0
			]
		}
	],
	"nodes":[
		{
			"mesh":0,
			"name":"Plane.005",
			"rotation":[
				0,
				0,
				-0.7071068286895752,
				0.7071068286895752
			],
			"translation":[
				1.0160719156265259,
				1.8156237602233887,
				-4.570750713348389
			]
		}
	],
	"materials":[
		{
			"doubleSided":true,
			"name":"Blau",
			"pbrMetallicRoughness":{
				"baseColorFactor":[
					0.07227185368537903,
					0.21223075687885284,
					0.3277781009674072,
					1
				],
				"metallicFactor":0,
				"roughnessFactor":0.9950000047683716
			}
		},
		{
			"doubleSided":true,
			"name":"creme",
			"pbrMetallicRoughness":{
				"baseColorFactor":[
					0.7529416084289551,
					0.715692937374115,
					0.7605245113372803,
					1
				],
				"metallicFactor":0,
				"roughnessFactor":0.9950000047683716
			}
		}
	],
	"meshes":[
		{
			"name":"Plane.038",
			"primitives":[
				{
					"attributes":{
						"POSITION":0,
						"NORMAL":1,
						"TEXCOORD_0":2
					},
					"indices":3,
					"material":0
				},
				{
					"attributes":{
						"POSITION":4,
						"NORMAL":5,
						"TEXCOORD_0":6
					},
					"indices":7,
					"material":1
				}
			]
		}
	],
	"accessors":[
		{
			"bufferView":0,
			"componentType":5126,
			"count":1558,
			"max":[
				0.07869184017181396,
				0.03629457578063011,
				0.10228613764047623
			],
			"min":[
				-0.0877542644739151,
				-0.03629457578063011,
				-0.09497437626123428
			],
			"type":"VEC3"
		},
		{
			"bufferView":1,
			"componentType":5126,
			"count":1558,
			"type":"VEC3"
		},
		{
			"bufferView":2,
			"componentType":5126,
			"count":1558,
			"type":"VEC2"
		},
		{
			"bufferView":3,
			"componentType":5123,
			"count":6114,
			"type":"SCALAR"
		},
		{
			"bufferView":4,
			"componentType":5126,
			"count":2154,
			"max":[
				0.0877542644739151,
				0.031842589378356934,
				0.08395040035247803
			],
			"min":[
				-0.08343573659658432,
				-0.026942215859889984,
				-0.10228613764047623
			],
			"type":"VEC3"
		},
		{
			"bufferView":5,
			"componentType":5126,
			"count":2154,
			"type":"VEC3"
		},
		{
			"bufferView":6,
			"componentType":5126,
			"count":2154,
			"type":"VEC2"
		},
		{
			"bufferView":7,
			"componentType":5123,
			"count":6270,
			"type":"SCALAR"
		}
	],
	"bufferViews":[
		{
			"buffer":0,
			"byteLength":18696,
			"byteOffset":0,
			"target":34962
		},
		{
			"buffer":0,
			"byteLength":18696,
			"byteOffset":18696,
			"target":34962
		},
		{
			"buffer":0,
			"byteLength":12464,
			"byteOffset":37392,
			"target":34962
		},
		{
			"buffer":0,
			"byteLength":12228,
			"byteOffset":49856,
			"target":34963
		},
		{
			"buffer":0,
			"byteLength":25848,
			"byteOffset":62084,
			"target":34962
		},
		{
			"buffer":0,
			"byteLength":25848,
			"byteOffset":87932,
			"target":34962
		},
		{
			"buffer":0,
			"byteLength":17232,
			"byteOffset":113780,
			"target":34962
		},
		{
			"buffer":0,
			"byteLength":12540,
			"byteOffset":131012,
			"target":34963
		}
	],
	"buffers":[
		{
			"byteLength":143552,
			"uri":"data:application/octet-stream;base64,"
		}
	]
}
