{
	"asset":{
		"generator":"Khronos glTF Blender I/O v3.6.27",
		"version":"2.0"
	},
	"scene":0,
	"scenes":[
		{
			"name":"Scene",
			"nodes":[
				0
			]
		}
	],
	"nodes":[
		{
			"mesh":0,
			"name":"Cube.002",
			"translation":[
				1.4945448637008667,
				1.2592058181762695,
				-4.660402774810791
			]
		}
	],
	"materials":[
		{
			"doubleSided":true,
			"name":"Grey",
			"pbrMetallicRoughness":{
				"baseColorFactor":[
					0.023707397282123566,
					0.023707397282123566,
					0.0482742004096508,
					1
				],
				"metallicFactor":0,
				"roughnessFactor":0.9696487188339233
			}
		},
		{
			"doubleSided":true,
			"name":"orangeHell",
			"pbrMetallicRoughness":{
				"baseColorFactor":[
					0.7346576452255249,
					0.37816208600997925,
					0.1395803689956665,
					1
				],
				"metallicFactor":0
			}
		}
	],
	"meshes":[
		{
			"name":"Cube.001",
			"primitives":[
				{
					"attributes":{
						"POSITION":0,
						"NORMAL":1,
						"TEXCOORD_0":2
					},
					"indices":3,
					"material":0
				},
				{
					"attributes":{
						"POSITION":4,
						"NORMAL":5,
						"TEXCOORD_0":6
					},
					"indices":7,
					"material":1
				}
			]
		}
	],
	"accessors":[
		{
			"bufferView":0,
			"componentType":5126,
			"count":429,
			"max":[
				0.039827797561883926,
				0.019646208733320236,
				0.022417517378926277
			],
			"min":[
				-0.03980696573853493,
				-0.00021220557391643524,
				-0.022417539730668068
			],
			"type":"VEC3"
		},
		{
			"bufferView":1,
			"componentType":5126,
			"count":429,
			"type":"VEC3"
		},
		{
			"bufferView":2,
			"componentType":5126,
			"count":429,
			"type":"VEC2"
		},
		{
			"bufferView":3,
			"componentType":5123,
			"count":2304,
			"type":"SCALAR"
		},
		{
			"bufferView":4,
			"componentType":5126,
			"count":261,
			"max":[
				0.03892470523715019,
				0.028454963117837906,
				0.02237624116241932
			],
			"min":[
				-0.039757419377565384,
				0.005953223444521427,
				-0.02237624116241932
			],
			"type":"VEC3"
		},
		{
			"bufferView":5,
			"componentType":5126,
			"count":261,
			"type":"VEC3"
		},
		{
			"bufferView":6,
			"componentType":5126,
			"count":261,
			"type":"VEC2"
		},
		{
			"bufferView":7,
			"componentType":5123,
			"count":1203,
			"type":"SCALAR"
		}
	],
	"bufferViews":[
		{
			"buffer":0,
			"byteLength":5148,
			"byteOffset":0,
			"target":34962
		},
		{
			"buffer":0,
			"byteLength":5148,
			"byteOffset":5148,
			"target":34962
		},
		{
			"buffer":0,
			"byteLength":3432,
			"byteOffset":10296,
			"target":34962
		},
		{
			"buffer":0,
			"byteLength":4608,
			"byteOffset":13728,
			"target":34963
		},
		{
			"buffer":0,
			"byteLength":3132,
			"byteOffset":18336,
			"target":34962
		},
		{
			"buffer":0,
			"byteLength":3132,
			"byteOffset":21468,
			"target":34962
		},
		{
			"buffer":0,
			"byteLength":2088,
			"byteOffset":24600,
			"target":34962
		},
		{
			"buffer":0,
			"byteLength":2406,
			"byteOffset":26688,
			"target":34963
		}
	],
	"buffers":[
		{
			"byteLength":29096,
			"uri":"data:application/octet-stream;base64,"
		}
	]
}
