{
	"asset":{
		"generator":"Khronos glTF Blender I/O v3.6.27",
		"version":"2.0"
	},
	"scene":0,
	"scenes":[
		{
			"name":"Scene",
			"nodes":[
				0
			]
		}
	],
	"nodes":[
		{
			"mesh":0,
			"name":"Circle.001",
			"translation":[
				1.231755256652832,
				1.2665953636169434,
				-4.321366310119629
			]
		}
	],
	"materials":[
		{
			"doubleSided":true,
			"name":"creme",
			"pbrMetallicRoughness":{
				"baseColorFactor":[
					0.7529416084289551,
					0.715692937374115,
					0.7605245113372803,
					1
				],
				"metallicFactor":0,
				"roughnessFactor":0.9950000047683716
			}
		},
		{
			"doubleSided":true,
			"name":"Blau",
			"pbrMetallicRoughness":{
				"baseColorFactor":[
					0.07227185368537903,
					0.21223075687885284,
					0.3277781009674072,
					1
				],
				"metallicFactor":0,
				"roughnessFactor":0.9950000047683716
			}
		}
	],
	"meshes":[
		{
			"name":"Circle.001",
			"primitives":[
				{
					"attributes":{
						"POSITION":0,
						"NORMAL":1,
						"TEXCOORD_0":2
					},
					"indices":3,
					"material":0
				},
				{
					"attributes":{
						"POSITION":4,
						"NORMAL":5,
						"TEXCOORD_0":6
					},
					"indices":7,
					"material":1
				}
			]
		}
	],
	"accessors":[
		{
			"bufferView":0,
			"componentType":5126,
			"count":70,
			"max":[
				0.005718939937651157,
				0.016988199204206467,
				0.03984622284770012
			],
			"min":[
				0.005515594966709614,
				-0.0175807885825634,
				0.019644934684038162
			],
			"type":"VEC3"
		},
		{
			"bufferView":1,
			"componentType":5126,
			"count":70,
			"type":"VEC3"
		},
		{
			"bufferView":2,
			"componentType":5126,
			"count":70,
			"type":"VEC2"
		},
		{
			"bufferView":3,
			"componentType":5123,
			"count":264,
			"type":"SCALAR"
		},
		{
			"bufferView":4,
			"componentType":5126,
			"count":24,
			"max":[
				0.004889852367341518,
				0.03451227396726608,
				0.049391746520996094
			],
			"min":[
				-0.005718939937651157,
				-0.03451227396726608,
				-0.049391746520996094
			],
			"type":"VEC3"
		},
		{
			"bufferView":5,
			"componentType":5126,
			"count":24,
			"type":"VEC3"
		},
		{
			"bufferView":6,
			"componentType":5126,
			"count":24,
			"type":"VEC2"
		},
		{
			"bufferView":7,
			"componentType":5123,
			"count":36,
			"type":"SCALAR"
		}
	],
	"bufferViews":[
		{
			"buffer":0,
			"byteLength":840,
			"byteOffset":0,
			"target":34962
		},
		{
			"buffer":0,
			"byteLength":840,
			"byteOffset":840,
			"target":34962
		},
		{
			"buffer":0,
			"byteLength":560,
			"byteOffset":1680,
			"target":34962
		},
		{
			"buffer":0,
			"byteLength":528,
			"byteOffset":2240,
			"target":34963
		},
		{
			"buffer":0,
			"byteLength":288,
			"byteOffset":2768,
			"target":34962
		},
		{
			"buffer":0,
			"byteLength":288,
			"byteOffset":3056,
			"target":34962
		},
		{
			"buffer":0,
			"byteLength":192,
			"byteOffset":3344,
			"target":34962
		},
		{
			"buffer":0,
			"byteLength":72,
			"byteOffset":3536,
			"target":34963
		}
	],
	"buffers":[
		{
			"byteLength":3608,
			"uri":"data:application/octet-stream;base64,"
		}
	]
}
