{
	"asset":{
		"generator":"Khronos glTF Blender I/O v3.6.27",
		"version":"2.0"
	},
	"scene":0,
	"scenes":[
		{
			"name":"Scene",
			"nodes":[
				0
			]
		}
	],
	"nodes":[
		{
			"mesh":0,
			"name":"Topf",
			"translation":[
				1.2340545654296875,
				1.2163609266281128,
				-4.742915630340576
			]
		}
	],
	"materials":[
		{
			"doubleSided":true,
			"name":"Grey.001",
			"pbrMetallicRoughness":{
				"baseColorFactor":[
					0.03189599886536598,
					0.03560100123286247,
					0.0466650016605854,
					1
				],
				"metallicFactor":0,
				"roughnessFactor":0.7295454740524292
			}
		},
		{
			"doubleSided":true,
			"name":"Green",
			"pbrMetallicRoughness":{
				"baseColorFactor":[
					0.019381999969482422,
					0.5711249709129333,
					0.32314300537109375,
					1
				],
				"metallicFactor":0,
				"roughnessFactor":0.5
			}
		}
	],
	"meshes":[
		{
			"name":"Topf",
			"primitives":[
				{
					"attributes":{
						"POSITION":0,
						"NORMAL":1,
						"TEXCOORD_0":2
					},
					"indices":3,
					"material":0
				},
				{
					"attributes":{
						"POSITION":4,
						"NORMAL":5,
						"TEXCOORD_0":6
					},
					"indices":7,
					"material":1
				}
			]
		}
	],
	"accessors":[
		{
			"bufferView":0,
			"componentType":5126,
			"count":811,
			"max":[
				0.03575741872191429,
				0.07098373770713806,
				0.03542773053050041
			],
			"min":[
				-0.03575741872191429,
				0.0008183079189620912,
				-0.03611915186047554
			],
			"type":"VEC3"
		},
		{
			"bufferView":1,
			"componentType":5126,
			"count":811,
			"type":"VEC3"
		},
		{
			"bufferView":2,
			"componentType":5126,
			"count":811,
			"type":"VEC2"
		},
		{
			"bufferView":3,
			"componentType":5123,
			"count":4320,
			"type":"SCALAR"
		},
		{
			"bufferView":4,
			"componentType":5126,
			"count":1158,
			"max":[
				0.03389613702893257,
				0.17154258489608765,
				0.03341925889253616
			],
			"min":[
				-0.030467648059129715,
				0.02299034595489502,
				-0.0444626659154892
			],
			"type":"VEC3"
		},
		{
			"bufferView":5,
			"componentType":5126,
			"count":1158,
			"type":"VEC3"
		},
		{
			"bufferView":6,
			"componentType":5126,
			"count":1158,
			"type":"VEC2"
		},
		{
			"bufferView":7,
			"componentType":5123,
			"count":5760,
			"type":"SCALAR"
		}
	],
	"bufferViews":[
		{
			"buffer":0,
			"byteLength":9732,
			"byteOffset":0,
			"target":34962
		},
		{
			"buffer":0,
			"byteLength":9732,
			"byteOffset":9732,
			"target":34962
		},
		{
			"buffer":0,
			"byteLength":6488,
			"byteOffset":19464,
			"target":34962
		},
		{
			"buffer":0,
			"byteLength":8640,
			"byteOffset":25952,
			"target":34963
		},
		{
			"buffer":0,
			"byteLength":13896,
			"byteOffset":34592,
			"target":34962
		},
		{
			"buffer":0,
			"byteLength":13896,
			"byteOffset":48488,
			"target":34962
		},
		{
			"buffer":0,
			"byteLength":9264,
			"byteOffset":62384,
			"target":34962
		},
		{
			"buffer":0,
			"byteLength":11520,
			"byteOffset":71648,
			"target":34963
		}
	],
	"buffers":[
		{
			"byteLength":83168,
			"uri":"data:application/octet-stream;base64,"
		}
	]
}
