{
	"asset":{
		"generator":"Khronos glTF Blender I/O v3.6.27",
		"version":"2.0"
	},
	"scene":0,
	"scenes":[
		{
			"name":"Scene",
			"nodes":[
				0
			]
		}
	],
	"nodes":[
		{
			"mesh":0,
			"name":"Puzzelstueck.001",
			"translation":[
				1.092054843902588,
				1.322487473487854,
				-5.439812660217285
			]
		}
	],
	"materials":[
		{
			"doubleSided":true,
			"name":"creme",
			"pbrMetallicRoughness":{
				"baseColorFactor":[
					0.7529416084289551,
					0.715692937374115,
					0.7605245113372803,
					1
				],
				"metallicFactor":0,
				"roughnessFactor":0.9950000047683716
			}
		},
		{
			"doubleSided":true,
			"name":"Blau",
			"pbrMetallicRoughness":{
				"baseColorFactor":[
					0.07227185368537903,
					0.21223075687885284,
					0.3277781009674072,
					1
				],
				"metallicFactor":0,
				"roughnessFactor":0.9950000047683716
			}
		}
	],
	"meshes":[
		{
			"name":"Plane.021",
			"primitives":[
				{
					"attributes":{
						"POSITION":0,
						"NORMAL":1,
						"TEXCOORD_0":2
					},
					"indices":3,
					"material":0
				},
				{
					"attributes":{
						"POSITION":4,
						"NORMAL":5,
						"TEXCOORD_0":6
					},
					"indices":7,
					"material":1
				}
			]
		}
	],
	"accessors":[
		{
			"bufferView":0,
			"componentType":5126,
			"count":1776,
			"max":[
				-0.0036415266804397106,
				0.03989119455218315,
				0.03999408334493637
			],
			"min":[
				-0.008907266892492771,
				-0.03989119082689285,
				-0.04019971191883087
			],
			"type":"VEC3"
		},
		{
			"bufferView":1,
			"componentType":5126,
			"count":1776,
			"type":"VEC3"
		},
		{
			"bufferView":2,
			"componentType":5126,
			"count":1776,
			"type":"VEC2"
		},
		{
			"bufferView":3,
			"componentType":5123,
			"count":9936,
			"type":"SCALAR"
		},
		{
			"bufferView":4,
			"componentType":5126,
			"count":592,
			"max":[
				0.008907267823815346,
				0.038810886442661285,
				0.04019971191883087
			],
			"min":[
				-0.008481725119054317,
				-0.010688320733606815,
				0.0002702610509004444
			],
			"type":"VEC3"
		},
		{
			"bufferView":5,
			"componentType":5126,
			"count":592,
			"type":"VEC3"
		},
		{
			"bufferView":6,
			"componentType":5126,
			"count":592,
			"type":"VEC2"
		},
		{
			"bufferView":7,
			"componentType":5123,
			"count":3312,
			"type":"SCALAR"
		}
	],
	"bufferViews":[
		{
			"buffer":0,
			"byteLength":21312,
			"byteOffset":0,
			"target":34962
		},
		{
			"buffer":0,
			"byteLength":21312,
			"byteOffset":21312,
			"target":34962
		},
		{
			"buffer":0,
			"byteLength":14208,
			"byteOffset":42624,
			"target":34962
		},
		{
			"buffer":0,
			"byteLength":19872,
			"byteOffset":56832,
			"target":34963
		},
		{
			"buffer":0,
			"byteLength":7104,
			"byteOffset":76704,
			"target":34962
		},
		{
			"buffer":0,
			"byteLength":7104,
			"byteOffset":83808,
			"target":34962
		},
		{
			"buffer":0,
			"byteLength":4736,
			"byteOffset":90912,
			"target":34962
		},
		{
			"buffer":0,
			"byteLength":6624,
			"byteOffset":95648,
			"target":34963
		}
	],
	"buffers":[
		{
			"byteLength":102272,
			"uri":"data:application/octet-stream;base64,"
		}
	]
}
