{
	"asset":{
		"generator":"Khronos glTF Blender I/O v3.6.27",
		"version":"2.0"
	},
	"scene":0,
	"scenes":[
		{
			"name":"Scene",
			"nodes":[
				0
			]
		}
	],
	"nodes":[
		{
			"mesh":0,
			"name":"Cone",
			"translation":[
				0.9777520298957825,
				1.2965097427368164,
				-4.276129245758057
			]
		}
	],
	"materials":[
		{
			"doubleSided":true,
			"name":"creme",
			"pbrMetallicRoughness":{
				"baseColorFactor":[
					0.7529416084289551,
					0.715692937374115,
					0.7605245113372803,
					1
				],
				"metallicFactor":0,
				"roughnessFactor":0.9950000047683716
			}
		},
		{
			"doubleSided":true,
			"name":"Blau",
			"pbrMetallicRoughness":{
				"baseColorFactor":[
					0.07227185368537903,
					0.21223075687885284,
					0.3277781009674072,
					1
				],
				"metallicFactor":0,
				"roughnessFactor":0.9950000047683716
			}
		}
	],
	"meshes":[
		{
			"name":"Cone",
			"primitives":[
				{
					"attributes":{
						"POSITION":0,
						"NORMAL":1,
						"TEXCOORD_0":2
					},
					"indices":3,
					"material":0
				},
				{
					"attributes":{
						"POSITION":4,
						"NORMAL":5,
						"TEXCOORD_0":6
					},
					"indices":7,
					"material":1
				}
			]
		}
	],
	"accessors":[
		{
			"bufferView":0,
			"componentType":5126,
			"count":538,
			"max":[
				0.05470219627022743,
				0.1116996556520462,
				0.05283239111304283
			],
			"min":[
				0.0009546540677547455,
				-0.027817998081445694,
				-0.12531746923923492
			],
			"type":"VEC3"
		},
		{
			"bufferView":1,
			"componentType":5126,
			"count":538,
			"type":"VEC3"
		},
		{
			"bufferView":2,
			"componentType":5126,
			"count":538,
			"type":"VEC2"
		},
		{
			"bufferView":3,
			"componentType":5123,
			"count":2196,
			"type":"SCALAR"
		},
		{
			"bufferView":4,
			"componentType":5126,
			"count":6865,
			"max":[
				0.06509875506162643,
				0.11251266300678253,
				0.12152228504419327
			],
			"min":[
				0.0017694197595119476,
				-0.041260022670030594,
				-0.1258026659488678
			],
			"type":"VEC3"
		},
		{
			"bufferView":5,
			"componentType":5126,
			"count":6865,
			"type":"VEC3"
		},
		{
			"bufferView":6,
			"componentType":5126,
			"count":6865,
			"type":"VEC2"
		},
		{
			"bufferView":7,
			"componentType":5123,
			"count":26934,
			"type":"SCALAR"
		}
	],
	"bufferViews":[
		{
			"buffer":0,
			"byteLength":6456,
			"byteOffset":0,
			"target":34962
		},
		{
			"buffer":0,
			"byteLength":6456,
			"byteOffset":6456,
			"target":34962
		},
		{
			"buffer":0,
			"byteLength":4304,
			"byteOffset":12912,
			"target":34962
		},
		{
			"buffer":0,
			"byteLength":4392,
			"byteOffset":17216,
			"target":34963
		},
		{
			"buffer":0,
			"byteLength":82380,
			"byteOffset":21608,
			"target":34962
		},
		{
			"buffer":0,
			"byteLength":82380,
			"byteOffset":103988,
			"target":34962
		},
		{
			"buffer":0,
			"byteLength":54920,
			"byteOffset":186368,
			"target":34962
		},
		{
			"buffer":0,
			"byteLength":53868,
			"byteOffset":241288,
			"target":34963
		}
	],
	"buffers":[
		{
			"byteLength":295156,
			"uri":"data:application/octet-stream;base64,"
		}
	]
}
