{
	"asset":{
		"generator":"Khronos glTF Blender I/O v3.6.27",
		"version":"2.0"
	},
	"scene":0,
	"scenes":[
		{
			"name":"Scene",
			"nodes":[
				0
			]
		}
	],
	"nodes":[
		{
			"mesh":0,
			"name":"Circle.007",
			"translation":[
				1.1136384010314941,
				1.2187968492507935,
				-4.8467864990234375
			]
		}
	],
	"materials":[
		{
			"doubleSided":true,
			"name":"orangeHell",
			"pbrMetallicRoughness":{
				"baseColorFactor":[
					0.7346576452255249,
					0.37816208600997925,
					0.1395803689956665,
					1
				],
				"metallicFactor":0
			}
		},
		{
			"doubleSided":true,
			"name":"Grey",
			"pbrMetallicRoughness":{
				"baseColorFactor":[
					0.023707397282123566,
					0.023707397282123566,
					0.0482742004096508,
					1
				],
				"metallicFactor":0,
				"roughnessFactor":0.9696487188339233
			}
		}
	],
	"meshes":[
		{
			"name":"Circle.005",
			"primitives":[
				{
					"attributes":{
						"POSITION":0,
						"NORMAL":1,
						"TEXCOORD_0":2
					},
					"indices":3,
					"material":0
				},
				{
					"attributes":{
						"POSITION":4,
						"NORMAL":5,
						"TEXCOORD_0":6
					},
					"indices":7,
					"material":1
				}
			]
		}
	],
	"accessors":[
		{
			"bufferView":0,
			"componentType":5126,
			"count":1527,
			"max":[
				0.019307726994156837,
				0.09644350409507751,
				0.010667278431355953
			],
			"min":[
				-0.012524975463747978,
				0.005656331777572632,
				-0.010172517970204353
			],
			"type":"VEC3"
		},
		{
			"bufferView":1,
			"componentType":5126,
			"count":1527,
			"type":"VEC3"
		},
		{
			"bufferView":2,
			"componentType":5126,
			"count":1527,
			"type":"VEC2"
		},
		{
			"bufferView":3,
			"componentType":5123,
			"count":7497,
			"type":"SCALAR"
		},
		{
			"bufferView":4,
			"componentType":5126,
			"count":2889,
			"max":[
				0.02099888026714325,
				0.08709651231765747,
				0.018836308270692825
			],
			"min":[
				-0.018616899847984314,
				0.00035617873072624207,
				-0.020779645070433617
			],
			"type":"VEC3"
		},
		{
			"bufferView":5,
			"componentType":5126,
			"count":2889,
			"type":"VEC3"
		},
		{
			"bufferView":6,
			"componentType":5126,
			"count":2889,
			"type":"VEC2"
		},
		{
			"bufferView":7,
			"componentType":5123,
			"count":15324,
			"type":"SCALAR"
		}
	],
	"bufferViews":[
		{
			"buffer":0,
			"byteLength":18324,
			"byteOffset":0,
			"target":34962
		},
		{
			"buffer":0,
			"byteLength":18324,
			"byteOffset":18324,
			"target":34962
		},
		{
			"buffer":0,
			"byteLength":12216,
			"byteOffset":36648,
			"target":34962
		},
		{
			"buffer":0,
			"byteLength":14994,
			"byteOffset":48864,
			"target":34963
		},
		{
			"buffer":0,
			"byteLength":34668,
			"byteOffset":63860,
			"target":34962
		},
		{
			"buffer":0,
			"byteLength":34668,
			"byteOffset":98528,
			"target":34962
		},
		{
			"buffer":0,
			"byteLength":23112,
			"byteOffset":133196,
			"target":34962
		},
		{
			"buffer":0,
			"byteLength":30648,
			"byteOffset":156308,
			"target":34963
		}
	],
	"buffers":[
		{
			"byteLength":186956,
			"uri":"data:application/octet-stream;base64,"
		}
	]
}
