{
	"asset":{
		"generator":"Khronos glTF Blender I/O v3.6.27",
		"version":"2.0"
	},
	"scene":0,
	"scenes":[
		{
			"name":"Scene",
			"nodes":[
				0
			]
		}
	],
	"nodes":[
		{
			"mesh":0,
			"name":"Cube.007",
			"translation":[
				1.4985694885253906,
				1.2483177185058594,
				-4.433082103729248
			]
		}
	],
	"materials":[
		{
			"doubleSided":true,
			"name":"Grey",
			"pbrMetallicRoughness":{
				"baseColorFactor":[
					0.023707397282123566,
					0.023707397282123566,
					0.0482742004096508,
					1
				],
				"metallicFactor":0,
				"roughnessFactor":0.9696487188339233
			}
		},
		{
			"doubleSided":true,
			"name":"orangeHell",
			"pbrMetallicRoughness":{
				"baseColorFactor":[
					0.7346576452255249,
					0.37816208600997925,
					0.1395803689956665,
					1
				],
				"metallicFactor":0
			}
		}
	],
	"meshes":[
		{
			"name":"Cube.007",
			"primitives":[
				{
					"attributes":{
						"POSITION":0,
						"NORMAL":1,
						"TEXCOORD_0":2
					},
					"indices":3,
					"material":0
				},
				{
					"attributes":{
						"POSITION":4,
						"NORMAL":5,
						"TEXCOORD_0":6
					},
					"indices":7,
					"material":1
				}
			]
		}
	],
	"accessors":[
		{
			"bufferView":0,
			"componentType":5126,
			"count":61,
			"max":[
				0.04965341463685036,
				0.011376992799341679,
				0.14072571694850922
			],
			"min":[
				-0.04986894130706787,
				0.0004619189421646297,
				-0.1397171914577484
			],
			"type":"VEC3"
		},
		{
			"bufferView":1,
			"componentType":5126,
			"count":61,
			"type":"VEC3"
		},
		{
			"bufferView":2,
			"componentType":5126,
			"count":61,
			"type":"VEC2"
		},
		{
			"bufferView":3,
			"componentType":5123,
			"count":90,
			"type":"SCALAR"
		},
		{
			"bufferView":4,
			"componentType":5126,
			"count":6048,
			"max":[
				0.04830523580312729,
				0.018045613542199135,
				0.13742563128471375
			],
			"min":[
				-0.04830523580312729,
				0.011277014389634132,
				-0.13742563128471375
			],
			"type":"VEC3"
		},
		{
			"bufferView":5,
			"componentType":5126,
			"count":6048,
			"type":"VEC3"
		},
		{
			"bufferView":6,
			"componentType":5126,
			"count":6048,
			"type":"VEC2"
		},
		{
			"bufferView":7,
			"componentType":5123,
			"count":16464,
			"type":"SCALAR"
		}
	],
	"bufferViews":[
		{
			"buffer":0,
			"byteLength":732,
			"byteOffset":0,
			"target":34962
		},
		{
			"buffer":0,
			"byteLength":732,
			"byteOffset":732,
			"target":34962
		},
		{
			"buffer":0,
			"byteLength":488,
			"byteOffset":1464,
			"target":34962
		},
		{
			"buffer":0,
			"byteLength":180,
			"byteOffset":1952,
			"target":34963
		},
		{
			"buffer":0,
			"byteLength":72576,
			"byteOffset":2132,
			"target":34962
		},
		{
			"buffer":0,
			"byteLength":72576,
			"byteOffset":74708,
			"target":34962
		},
		{
			"buffer":0,
			"byteLength":48384,
			"byteOffset":147284,
			"target":34962
		},
		{
			"buffer":0,
			"byteLength":32928,
			"byteOffset":195668,
			"target":34963
		}
	],
	"buffers":[
		{
			"byteLength":228596,
			"uri":"data:application/octet-stream;base64,"
		}
	]
}
