{
	"asset":{
		"generator":"Khronos glTF Blender I/O v3.6.27",
		"version":"2.0"
	},
	"scene":0,
	"scenes":[
		{
			"name":"Scene",
			"nodes":[
				0,
				1,
				2
			]
		}
	],
	"nodes":[
		{
			"mesh":0,
			"name":"Becher",
			"translation":[
				0,
				0.32229411602020264,
				4.876012802124023
			]
		},
		{
			"mesh":1,
			"name":"Stift 1",
			"translation":[
				0.061021145433187485,
				0.6034783124923706,
				4.679792881011963
			]
		},
		{
			"mesh":2,
			"name":"Stift 2",
			"translation":[
				-0.11312752962112427,
				0.6243191361427307,
				4.6957106590271
			]
		}
	],
	"meshes":[
		{
			"name":"Cylinder.003",
			"primitives":[
				{
					"attributes":{
						"POSITION":0,
						"NORMAL":1,
						"TEXCOORD_0":2
					},
					"indices":3
				}
			]
		},
		{
			"name":"Cylinder.006",
			"primitives":[
				{
					"attributes":{
						"POSITION":4,
						"NORMAL":5,
						"TEXCOORD_0":6
					},
					"indices":7
				}
			]
		},
		{
			"name":"Cylinder.007",
			"primitives":[
				{
					"attributes":{
						"POSITION":8,
						"NORMAL":9,
						"TEXCOORD_0":10
					},
					"indices":11
				}
			]
		}
	],
	"accessors":[
		{
			"bufferView":0,
			"componentType":5126,
			"count":134,
			"max":[
				0.3094227910041809,
				0.3094227910041809,
				0.3094227910041809
			],
			"min":[
				-0.3094227910041809,
				-0.3094227910041809,
				-0.3094227910041809
			],
			"type":"VEC3"
		},
		{
			"bufferView":1,
			"componentType":5126,
			"count":134,
			"type":"VEC3"
		},
		{
			"bufferView":2,
			"componentType":5126,
			"count":134,
			"type":"VEC2"
		},
		{
			"bufferView":3,
			"componentType":5123,
			"count":372,
			"type":"SCALAR"
		},
		{
			"bufferView":4,
			"componentType":5126,
			"count":66,
			"max":[
				0.061659686267375946,
				0.42302414774894714,
				0.19234342873096466
			],
			"min":[
				-0.061659686267375946,
				-0.42302414774894714,
				-0.19234342873096466
			],
			"type":"VEC3"
		},
		{
			"bufferView":5,
			"componentType":5126,
			"count":66,
			"type":"VEC3"
		},
		{
			"bufferView":6,
			"componentType":5126,
			"count":66,
			"type":"VEC2"
		},
		{
			"bufferView":7,
			"componentType":5123,
			"count":180,
			"type":"SCALAR"
		},
		{
			"bufferView":8,
			"componentType":5126,
			"count":66,
			"max":[
				0.1116824597120285,
				0.423886775970459,
				0.1779319941997528
			],
			"min":[
				-0.1116824597120285,
				-0.423886775970459,
				-0.1779319941997528
			],
			"type":"VEC3"
		},
		{
			"bufferView":9,
			"componentType":5126,
			"count":66,
			"type":"VEC3"
		},
		{
			"bufferView":10,
			"componentType":5126,
			"count":66,
			"type":"VEC2"
		},
		{
			"bufferView":11,
			"componentType":5123,
			"count":180,
			"type":"SCALAR"
		}
	],
	"bufferViews":[
		{
			"buffer":0,
			"byteLength":1608,
			"byteOffset":0,
			"target":34962
		},
		{
			"buffer":0,
			"byteLength":1608,
			"byteOffset":1608,
			"target":34962
		},
		{
			"buffer":0,
			"byteLength":1072,
			"byteOffset":3216,
			"target":34962
		},
		{
			"buffer":0,
			"byteLength":744,
			"byteOffset":4288,
			"target":34963
		},
		{
			"buffer":0,
			"byteLength":792,
			"byteOffset":5032,
			"target":34962
		},
		{
			"buffer":0,
			"byteLength":792,
			"byteOffset":5824,
			"target":34962
		},
		{
			"buffer":0,
			"byteLength":528,
			"byteOffset":6616,
			"target":34962
		},
		{
			"buffer":0,
			"byteLength":360,
			"byteOffset":7144,
			"target":34963
		},
		{
			"buffer":0,
			"byteLength":792,
			"byteOffset":7504,
			"target":34962
		},
		{
			"buffer":0,
			"byteLength":792,
			"byteOffset":8296,
			"target":34962
		},
		{
			"buffer":0,
			"byteLength":528,
			"byteOffset":9088,
			"target":34962
		},
		{
			"buffer":0,
			"byteLength":360,
			"byteOffset":9616,
			"target":34963
		}
	],
	"buffers":[
		{
			"byteLength":9976,
			"uri":"data:application/octet-stream;base64,"
		}
	]
}
