{
	"asset":{
		"generator":"Khronos glTF Blender I/O v3.6.27",
		"version":"2.0"
	},
	"scene":0,
	"scenes":[
		{
			"name":"Scene",
			"nodes":[
				0,
				1
			]
		}
	],
	"nodes":[
		{
			"mesh":0,
			"name":"Maus Main",
			"rotation":[
				0,
				-1,
				0,
				1.6292068494294654e-07
			],
			"scale":[
				0.3954871892929077,
				0.19911126792430878,
				0.2742064297199249
			],
			"translation":[
				0,
				0.184798002243042,
				8.26417350769043
			]
		},
		{
			"mesh":1,
			"name":"Maus Taste",
			"rotation":[
				0,
				-1,
				0,
				1.6292068494294654e-07
			],
			"scale":[
				0.3954871892929077,
				0.19911126792430878,
				0.2742064297199249
			],
			"translation":[
				0,
				0.1853596717119217,
				8.26417350769043
			]
		}
	],
	"meshes":[
		{
			"name":"Cube.005",
			"primitives":[
				{
					"attributes":{
						"POSITION":0,
						"NORMAL":1,
						"TEXCOORD_0":2
					},
					"indices":3
				}
			]
		},
		{
			"name":"Cube.006",
			"primitives":[
				{
					"attributes":{
						"POSITION":4,
						"NORMAL":5,
						"TEXCOORD_0":6
					},
					"indices":7
				}
			]
		}
	],
	"accessors":[
		{
			"bufferView":0,
			"componentType":5126,
			"count":87,
			"max":[
				1.1863096952438354,
				0.4720352292060852,
				0.8856910467147827
			],
			"min":[
				-0.6681851148605347,
				-1.0420223474502563,
				-0.8856882452964783
			],
			"type":"VEC3"
		},
		{
			"bufferView":1,
			"componentType":5126,
			"count":87,
			"type":"VEC3"
		},
		{
			"bufferView":2,
			"componentType":5126,
			"count":87,
			"type":"VEC2"
		},
		{
			"bufferView":3,
			"componentType":5123,
			"count":240,
			"type":"SCALAR"
		},
		{
			"bufferView":4,
			"componentType":5126,
			"count":72,
			"max":[
				-0.04826134443283081,
				0.36967378854751587,
				0.48792093992233276
			],
			"min":[
				-0.6769719123840332,
				-0.41630953550338745,
				-0.4815352261066437
			],
			"type":"VEC3"
		},
		{
			"bufferView":5,
			"componentType":5126,
			"count":72,
			"type":"VEC3"
		},
		{
			"bufferView":6,
			"componentType":5126,
			"count":72,
			"type":"VEC2"
		},
		{
			"bufferView":7,
			"componentType":5123,
			"count":120,
			"type":"SCALAR"
		}
	],
	"bufferViews":[
		{
			"buffer":0,
			"byteLength":1044,
			"byteOffset":0,
			"target":34962
		},
		{
			"buffer":0,
			"byteLength":1044,
			"byteOffset":1044,
			"target":34962
		},
		{
			"buffer":0,
			"byteLength":696,
			"byteOffset":2088,
			"target":34962
		},
		{
			"buffer":0,
			"byteLength":480,
			"byteOffset":2784,
			"target":34963
		},
		{
			"buffer":0,
			"byteLength":864,
			"byteOffset":3264,
			"target":34962
		},
		{
			"buffer":0,
			"byteLength":864,
			"byteOffset":4128,
			"target":34962
		},
		{
			"buffer":0,
			"byteLength":576,
			"byteOffset":4992,
			"target":34962
		},
		{
			"buffer":0,
			"byteLength":240,
			"byteOffset":5568,
			"target":34963
		}
	],
	"buffers":[
		{
			"byteLength":5808,
			"uri":"data:application/octet-stream;base64,"
		}
	]
}
