{
	"asset":{
		"generator":"Khronos glTF Blender I/O v3.6.27",
		"version":"2.0"
	},
	"scene":0,
	"scenes":[
		{
			"name":"Scene",
			"nodes":[
				0,
				1
			]
		}
	],
	"nodes":[
		{
			"mesh":0,
			"name":"Blatt 3",
			"scale":[
				0.5801177024841309,
				0.5801177024841309,
				0.5801177024841309
			],
			"translation":[
				-0.03382890298962593,
				0.2959410548210144,
				6.634406566619873
			]
		},
		{
			"mesh":1,
			"name":"Topf",
			"scale":[
				0.5801177024841309,
				0.5801177024841309,
				0.5801177024841309
			],
			"translation":[
				-0.00898930337280035,
				0.197848379611969,
				6.649210453033447
			]
		}
	],
	"meshes":[
		{
			"name":"Plane.004",
			"primitives":[
				{
					"attributes":{
						"POSITION":0,
						"NORMAL":1,
						"TEXCOORD_0":2
					},
					"indices":3
				}
			]
		},
		{
			"name":"Cylinder.004",
			"primitives":[
				{
					"attributes":{
						"POSITION":4,
						"NORMAL":5,
						"TEXCOORD_0":6
					},
					"indices":7
				}
			]
		}
	],
	"accessors":[
		{
			"bufferView":0,
			"componentType":5126,
			"count":420,
			"max":[
				0.8332909941673279,
				1.2379662990570068,
				0.8677085638046265
			],
			"min":[
				-0.6285610198974609,
				-0.013618426397442818,
				-0.7135937809944153
			],
			"type":"VEC3"
		},
		{
			"bufferView":1,
			"componentType":5126,
			"count":420,
			"type":"VEC3"
		},
		{
			"bufferView":2,
			"componentType":5126,
			"count":420,
			"type":"VEC2"
		},
		{
			"bufferView":3,
			"componentType":5123,
			"count":1176,
			"type":"SCALAR"
		},
		{
			"bufferView":4,
			"componentType":5126,
			"count":198,
			"max":[
				0.37739983201026917,
				0.3110123872756958,
				0.37739983201026917
			],
			"min":[
				-0.37739983201026917,
				-0.3094227910041809,
				-0.37739983201026917
			],
			"type":"VEC3"
		},
		{
			"bufferView":5,
			"componentType":5126,
			"count":198,
			"type":"VEC3"
		},
		{
			"bufferView":6,
			"componentType":5126,
			"count":198,
			"type":"VEC2"
		},
		{
			"bufferView":7,
			"componentType":5123,
			"count":552,
			"type":"SCALAR"
		}
	],
	"bufferViews":[
		{
			"buffer":0,
			"byteLength":5040,
			"byteOffset":0,
			"target":34962
		},
		{
			"buffer":0,
			"byteLength":5040,
			"byteOffset":5040,
			"target":34962
		},
		{
			"buffer":0,
			"byteLength":3360,
			"byteOffset":10080,
			"target":34962
		},
		{
			"buffer":0,
			"byteLength":2352,
			"byteOffset":13440,
			"target":34963
		},
		{
			"buffer":0,
			"byteLength":2376,
			"byteOffset":15792,
			"target":34962
		},
		{
			"buffer":0,
			"byteLength":2376,
			"byteOffset":18168,
			"target":34962
		},
		{
			"buffer":0,
			"byteLength":1584,
			"byteOffset":20544,
			"target":34962
		},
		{
			"buffer":0,
			"byteLength":1104,
			"byteOffset":22128,
			"target":34963
		}
	],
	"buffers":[
		{
			"byteLength":23232,
			"uri":"data:application/octet-stream;base64,"
		}
	]
}
