{
	"asset":{
		"generator":"Khronos glTF Blender I/O v3.6.27",
		"version":"2.0"
	},
	"scene":0,
	"scenes":[
		{
			"name":"Scene",
			"nodes":[
				0
			]
		}
	],
	"nodes":[
		{
			"mesh":0,
			"name":"Cube.006",
			"translation":[
				0.96592777967453,
				1.3250644207000732,
				-4.8829216957092285
			]
		}
	],
	"materials":[
		{
			"doubleSided":true,
			"name":"Grey",
			"pbrMetallicRoughness":{
				"baseColorFactor":[
					0.023707397282123566,
					0.023707397282123566,
					0.0482742004096508,
					1
				],
				"metallicFactor":0,
				"roughnessFactor":0.9696487188339233
			}
		},
		{
			"doubleSided":true,
			"name":"orangeHell",
			"pbrMetallicRoughness":{
				"baseColorFactor":[
					0.7346576452255249,
					0.37816208600997925,
					0.1395803689956665,
					1
				],
				"metallicFactor":0
			}
		}
	],
	"meshes":[
		{
			"name":"Cube.023",
			"primitives":[
				{
					"attributes":{
						"POSITION":0,
						"NORMAL":1,
						"TEXCOORD_0":2
					},
					"indices":3,
					"material":0
				},
				{
					"attributes":{
						"POSITION":4,
						"NORMAL":5,
						"TEXCOORD_0":6
					},
					"indices":7,
					"material":1
				}
			]
		}
	],
	"accessors":[
		{
			"bufferView":0,
			"componentType":5126,
			"count":52,
			"max":[
				0.03259358927607536,
				0.05766884237527847,
				0.09084095060825348
			],
			"min":[
				-0.01820729300379753,
				-0.11269511282444,
				-0.09122297912836075
			],
			"type":"VEC3"
		},
		{
			"bufferView":1,
			"componentType":5126,
			"count":52,
			"type":"VEC3"
		},
		{
			"bufferView":2,
			"componentType":5126,
			"count":52,
			"type":"VEC2"
		},
		{
			"bufferView":3,
			"componentType":5123,
			"count":204,
			"type":"SCALAR"
		},
		{
			"bufferView":4,
			"componentType":5126,
			"count":48,
			"max":[
				0.013485176488757133,
				0.06348226964473724,
				0.09726577997207642
			],
			"min":[
				0.0019310880452394485,
				-0.06348226964473724,
				-0.09726577997207642
			],
			"type":"VEC3"
		},
		{
			"bufferView":5,
			"componentType":5126,
			"count":48,
			"type":"VEC3"
		},
		{
			"bufferView":6,
			"componentType":5126,
			"count":48,
			"type":"VEC2"
		},
		{
			"bufferView":7,
			"componentType":5123,
			"count":132,
			"type":"SCALAR"
		}
	],
	"bufferViews":[
		{
			"buffer":0,
			"byteLength":624,
			"byteOffset":0,
			"target":34962
		},
		{
			"buffer":0,
			"byteLength":624,
			"byteOffset":624,
			"target":34962
		},
		{
			"buffer":0,
			"byteLength":416,
			"byteOffset":1248,
			"target":34962
		},
		{
			"buffer":0,
			"byteLength":408,
			"byteOffset":1664,
			"target":34963
		},
		{
			"buffer":0,
			"byteLength":576,
			"byteOffset":2072,
			"target":34962
		},
		{
			"buffer":0,
			"byteLength":576,
			"byteOffset":2648,
			"target":34962
		},
		{
			"buffer":0,
			"byteLength":384,
			"byteOffset":3224,
			"target":34962
		},
		{
			"buffer":0,
			"byteLength":264,
			"byteOffset":3608,
			"target":34963
		}
	],
	"buffers":[
		{
			"byteLength":3872,
			"uri":"data:application/octet-stream;base64,"
		}
	]
}
