{
	"asset":{
		"generator":"Khronos glTF Blender I/O v3.6.27",
		"version":"2.0"
	},
	"scene":0,
	"scenes":[
		{
			"name":"Scene",
			"nodes":[
				0,
				1,
				2
			]
		}
	],
	"nodes":[
		{
			"mesh":0,
			"name":"Plane",
			"translation":[
				-0.026805132627487183,
				0.8030294179916382,
				-3.6594886779785156
			]
		},
		{
			"mesh":1,
			"name":"Plane.001",
			"translation":[
				0.028888411819934845,
				0.6613613963127136,
				-3.6594886779785156
			]
		},
		{
			"mesh":2,
			"name":"Umschlag",
			"translation":[
				0.00021742575336247683,
				0.45896828174591064,
				-3.6594886779785156
			]
		}
	],
	"meshes":[
		{
			"name":"Plane",
			"primitives":[
				{
					"attributes":{
						"POSITION":0,
						"NORMAL":1,
						"TEXCOORD_0":2
					},
					"indices":3
				}
			]
		},
		{
			"name":"Plane.001",
			"primitives":[
				{
					"attributes":{
						"POSITION":4,
						"NORMAL":5,
						"TEXCOORD_0":6
					},
					"indices":3
				}
			]
		},
		{
			"name":"Cube.004",
			"primitives":[
				{
					"attributes":{
						"POSITION":7,
						"NORMAL":8,
						"TEXCOORD_0":9
					},
					"indices":10
				}
			]
		}
	],
	"accessors":[
		{
			"bufferView":0,
			"componentType":5126,
			"count":4,
			"max":[
				2.9225976305724544e-08,
				0.38710978627204895,
				0.5031954646110535
			],
			"min":[
				-2.9225976305724544e-08,
				-0.38710978627204895,
				-0.5031954646110535
			],
			"type":"VEC3"
		},
		{
			"bufferView":1,
			"componentType":5126,
			"count":4,
			"type":"VEC3"
		},
		{
			"bufferView":2,
			"componentType":5126,
			"count":4,
			"type":"VEC2"
		},
		{
			"bufferView":3,
			"componentType":5123,
			"count":6,
			"type":"SCALAR"
		},
		{
			"bufferView":4,
			"componentType":5126,
			"count":4,
			"max":[
				2.9225976305724544e-08,
				0.38710978627204895,
				0.5031954646110535
			],
			"min":[
				-2.9225976305724544e-08,
				-0.38710978627204895,
				-0.5031954646110535
			],
			"type":"VEC3"
		},
		{
			"bufferView":5,
			"componentType":5126,
			"count":4,
			"type":"VEC3"
		},
		{
			"bufferView":6,
			"componentType":5126,
			"count":4,
			"type":"VEC2"
		},
		{
			"bufferView":7,
			"componentType":5126,
			"count":108,
			"max":[
				0.09483923017978668,
				0.5558480024337769,
				0.6074531674385071
			],
			"min":[
				-0.11242884397506714,
				-0.43976888060569763,
				-0.6074531674385071
			],
			"type":"VEC3"
		},
		{
			"bufferView":8,
			"componentType":5126,
			"count":108,
			"type":"VEC3"
		},
		{
			"bufferView":9,
			"componentType":5126,
			"count":108,
			"type":"VEC2"
		},
		{
			"bufferView":10,
			"componentType":5123,
			"count":276,
			"type":"SCALAR"
		}
	],
	"bufferViews":[
		{
			"buffer":0,
			"byteLength":48,
			"byteOffset":0,
			"target":34962
		},
		{
			"buffer":0,
			"byteLength":48,
			"byteOffset":48,
			"target":34962
		},
		{
			"buffer":0,
			"byteLength":32,
			"byteOffset":96,
			"target":34962
		},
		{
			"buffer":0,
			"byteLength":12,
			"byteOffset":128,
			"target":34963
		},
		{
			"buffer":0,
			"byteLength":48,
			"byteOffset":140,
			"target":34962
		},
		{
			"buffer":0,
			"byteLength":48,
			"byteOffset":188,
			"target":34962
		},
		{
			"buffer":0,
			"byteLength":32,
			"byteOffset":236,
			"target":34962
		},
		{
			"buffer":0,
			"byteLength":1296,
			"byteOffset":268,
			"target":34962
		},
		{
			"buffer":0,
			"byteLength":1296,
			"byteOffset":1564,
			"target":34962
		},
		{
			"buffer":0,
			"byteLength":864,
			"byteOffset":2860,
			"target":34962
		},
		{
			"buffer":0,
			"byteLength":552,
			"byteOffset":3724,
			"target":34963
		}
	],
	"buffers":[
		{
			"byteLength":4276,
			"uri":"data:application/octet-stream;base64,"
		}
	]
}
